<svg width="226.002" height="160.457" viewBox="0 0 226.002 160.457" xmlns="http://www.w3.org/2000/svg"><g id="svgGroup" stroke-linecap="round" fill-rule="evenodd" font-size="9pt" stroke="#000" stroke-width="0.0mm" fill="#fff" style="stroke:#000;stroke-width:0.0mm;fill:#fff"><path d="M 180.472 50.684 L 180.228 50.684 Q 179.758 50.769 179.213 50.705 A 4.463 4.463 0 0 1 179.056 50.684 A 2.37 2.37 0 0 1 178.002 50.239 A 2.857 2.857 0 0 1 177.884 50.146 A 2.855 2.855 0 0 1 177.63 49.859 Q 177.334 49.47 177.334 49.12 A 0.809 0.809 0 0 1 177.347 48.975 A 2.215 2.215 0 0 1 177.786 47.998 A 120.261 120.261 0 0 0 186.673 30.713 A 111.88 111.88 0 0 0 190.872 19.238 Q 191.927 15.94 191.24 12.207 A 18.226 18.226 0 0 0 191.067 11.377 A 8.237 8.237 0 0 0 186.999 5.674 A 11.038 11.038 0 0 0 185.696 5.029 A 21.63 21.63 0 0 0 178.714 3.662 L 177.444 3.662 A 67.834 67.834 0 0 0 162.845 5.811 A 191.118 191.118 0 0 0 139.139 13.208 A 315.256 315.256 0 0 0 116.751 22.852 Q 68.753 46.191 30.814 81.836 Q 21.243 90.43 14.065 101.074 A 57.066 57.066 0 0 0 9.671 109.033 A 19.584 19.584 0 0 0 8.171 113.979 A 21.703 21.703 0 0 0 8.157 114.063 Q 6.546 122.754 15.677 127.051 Q 23.392 130.615 31.351 131.055 A 142.835 142.835 0 0 0 42.769 131.59 A 130.694 130.694 0 0 0 43.509 131.592 A 57.937 57.937 0 0 0 48.23 131.405 A 52.34 52.34 0 0 0 48.88 131.348 A 280.526 280.526 0 0 0 102.914 125.708 A 250.812 250.812 0 0 0 119.876 121.582 Q 120.413 121.387 120.95 121.289 A 30.377 30.377 0 0 1 125.367 120.126 A 33.517 33.517 0 0 1 125.687 120.068 A 9.98 9.98 0 0 1 126.057 120.02 Q 126.627 119.954 127.58 119.888 A 74.383 74.383 0 0 1 127.811 119.873 A 11.978 11.978 0 0 1 128.594 119.847 Q 129.591 119.847 130.519 120.02 A 9.707 9.707 0 0 1 130.643 120.044 A 3.268 3.268 0 0 1 131.315 120.249 Q 132.081 120.585 132.327 121.289 A 1.691 1.691 0 0 1 132.347 121.428 Q 132.367 121.631 132.326 121.79 A 0.647 0.647 0 0 1 132.156 122.095 A 1.096 1.096 0 0 1 131.87 122.297 Q 131.653 122.406 131.351 122.461 A 702.542 702.542 0 0 0 127.298 123.535 A 943.182 943.182 0 0 1 115.237 126.66 A 273.358 273.358 0 0 1 46.962 135.114 A 296.702 296.702 0 0 1 44.974 135.107 Q 37.454 135.107 29.935 134.814 A 52.913 52.913 0 0 1 15.115 132.011 A 60.391 60.391 0 0 1 12.991 131.25 A 31.496 31.496 0 0 1 7.384 128.47 Q -2.942 121.861 1.175 109.668 A 40.518 40.518 0 0 1 6.985 98.584 A 106.29 106.29 0 0 1 18.558 84.619 Q 24.905 78.174 31.79 72.168 Q 62.503 45.117 99.368 25.684 Q 110.647 19.775 122.342 14.673 Q 134.036 9.57 146.487 5.664 A 143.2 143.2 0 0 1 167.972 0.635 A 62.423 62.423 0 0 1 176.81 0 A 87.334 87.334 0 0 1 182.62 0.195 Q 186.038 0.537 189.456 1.611 Q 198.733 4.932 198.929 13.867 A 26.922 26.922 0 0 1 197.855 21.484 A 93.904 93.904 0 0 1 192.337 35.107 A 187.321 187.321 0 0 1 185.306 47.9 A 5.135 5.135 0 0 1 182.151 50.593 A 6.571 6.571 0 0 1 181.839 50.684 Q 181.132 50.778 180.516 50.69 A 3.993 3.993 0 0 1 180.472 50.684 Z M 226.001 101.761 A 1.119 1.119 0 0 0 225.882 101.245 A 0.522 0.522 0 0 0 225.623 100.998 Q 224.541 100.515 220.096 103.76 Q 214.944 107.52 212.259 108.057 Q 211.718 108.057 211.605 107.553 A 1.384 1.384 0 0 1 211.575 107.251 A 4.276 4.276 0 0 1 211.594 106.859 Q 211.625 106.519 211.709 106.139 A 8.668 8.668 0 0 1 211.917 105.371 A 32.954 32.954 0 0 1 212.003 105.104 A 29.691 29.691 0 0 1 212.649 103.32 Q 212.796 103.027 212.894 102.686 Q 214.407 98.389 215.774 93.994 A 3.381 3.381 0 0 0 215.844 93.659 Q 216.011 92.571 215.311 91.87 Q 214.598 91.157 213.331 91.19 A 4.805 4.805 0 0 0 212.991 91.211 A 3.785 3.785 0 0 0 212.288 91.334 A 2.709 2.709 0 0 0 211.111 91.992 A 6.21 6.21 0 0 0 210.584 92.571 A 7.464 7.464 0 0 0 209.866 93.652 Q 206.106 100.537 200.296 105.811 A 15.055 15.055 0 0 1 195.267 109.131 A 3.184 3.184 0 0 1 195.238 109.144 Q 194.766 109.351 194.345 109.351 A 1.59 1.59 0 0 1 193.533 109.131 A 1.625 1.625 0 0 1 192.829 108.335 A 2.157 2.157 0 0 1 192.679 107.715 A 17.928 17.928 0 0 1 192.662 106.953 A 17.403 17.403 0 0 1 194.632 98.926 L 195.706 96.777 A 230.892 230.892 0 0 1 196.976 93.994 Q 197.317 93.018 196.731 92.383 Q 196.146 91.748 195.071 91.846 A 1.057 1.057 0 0 1 195.043 91.864 Q 194.915 91.943 194.827 91.943 A 4.99 4.99 0 0 0 194.726 91.963 A 5.417 5.417 0 0 0 193.753 92.261 Q 193.484 92.371 193.277 92.511 A 1.764 1.764 0 0 0 192.923 92.822 A 29.37 29.37 0 0 0 192.235 93.659 A 25.769 25.769 0 0 0 188.553 99.902 A 19.51 19.51 0 0 0 187.107 107.361 A 21.499 21.499 0 0 0 187.112 107.861 Q 187.21 112.988 192.923 112.988 A 11.863 11.863 0 0 0 193.723 113.015 Q 194.968 113.015 196.184 112.75 A 12.866 12.866 0 0 0 199.905 111.279 A 18 18 0 0 1 199.989 111.222 Q 200.281 111.022 200.552 110.854 A 10.894 10.894 0 0 1 201.077 110.547 A 29.413 29.413 0 0 1 201.683 110.134 A 25.093 25.093 0 0 1 202.981 109.326 Q 203.323 109.131 203.592 109.18 Q 203.789 109.216 203.894 109.409 A 0.797 0.797 0 0 1 203.958 109.57 A 2.059 2.059 0 0 1 203.991 109.939 Q 203.991 110.117 203.962 110.305 A 3.055 3.055 0 0 1 203.86 110.742 A 3.957 3.957 0 0 1 202.796 112.387 A 4.285 4.285 0 0 1 201.37 113.232 Q 198.685 114.404 196.146 115.576 A 90.536 90.536 0 0 0 195.401 115.906 A 67.247 67.247 0 0 0 194.73 116.211 A 593.559 593.559 0 0 0 176.272 124.707 A 215.389 215.389 0 0 0 158.401 134.375 Q 153.714 137.256 149.417 140.723 Q 147.269 142.529 145.657 144.775 A 11.127 11.127 0 0 0 145.331 145.294 Q 142.835 149.527 146.194 152.979 Q 148.343 154.98 151.028 156.201 A 52.315 52.315 0 0 0 164.603 160.059 A 41.117 41.117 0 0 0 170.344 160.457 Q 174.566 160.457 178.958 159.619 A 27.952 27.952 0 0 0 181.521 158.933 A 22.191 22.191 0 0 0 191.019 153.076 A 38.394 38.394 0 0 0 192.441 151.494 A 41.224 41.224 0 0 0 198.66 141.528 A 126.48 126.48 0 0 0 203.763 128.125 Q 204.935 124.805 206.106 121.68 Q 206.985 119.141 207.522 117.627 Q 207.979 116.153 208.385 115.234 A 8.186 8.186 0 0 1 208.694 114.6 A 3.663 3.663 0 0 1 209.499 113.609 A 4.911 4.911 0 0 1 210.403 112.988 A 12.71 12.71 0 0 1 210.446 112.965 Q 211.622 112.334 214.163 111.279 Q 219.125 108.64 221.931 106.571 A 20.547 20.547 0 0 0 223.782 105.054 Q 226.001 102.973 226.001 101.761 Z M 170.462 107.178 A 17.905 17.905 0 0 0 169.848 107.645 Q 168.989 108.331 168.749 108.749 A 0.591 0.591 0 0 0 168.655 109.033 A 0.449 0.449 0 0 0 168.876 109.416 Q 169.079 109.555 169.469 109.623 A 4.024 4.024 0 0 0 169.827 109.668 A 27.237 27.237 0 0 0 171.06 109.741 A 35.983 35.983 0 0 0 172.415 109.766 Q 172.855 109.668 173.147 109.668 A 36.773 36.773 0 0 1 182.083 110.938 A 11.533 11.533 0 0 1 184.191 111.922 A 13.069 13.069 0 0 1 184.573 112.158 L 184.671 112.256 A 0.493 0.493 0 0 1 184.823 112.377 Q 184.918 112.487 184.988 112.671 A 0.887 0.887 0 0 1 185.028 112.803 Q 185.044 112.876 185.044 112.944 A 0.55 0.55 0 0 1 184.964 113.232 A 0.309 0.309 0 0 1 184.907 113.407 Q 184.843 113.503 184.704 113.593 A 1.205 1.205 0 0 1 184.695 113.599 A 7.497 7.497 0 0 1 184.504 113.717 Q 184.415 113.77 184.335 113.813 A 3.439 3.439 0 0 1 184.231 113.867 Q 183.353 114.063 182.522 113.965 A 140.124 140.124 0 0 0 165.962 112.98 A 139.269 139.269 0 0 0 164.456 112.988 L 160.94 112.988 Q 160.479 112.988 159.909 113.06 A 11.956 11.956 0 0 0 159.72 113.086 A 8.732 8.732 0 0 1 158.885 113.143 Q 158.246 113.155 157.661 113.064 A 6.177 6.177 0 0 1 157.376 113.013 A 1.614 1.614 0 0 1 156.263 112.177 Q 156.072 111.842 155.96 111.377 Q 155.765 110.303 156.522 109.814 Q 157.278 109.326 158.353 109.033 A 6.551 6.551 0 0 0 159.72 108.398 A 145.554 145.554 0 0 0 174.466 98.926 A 24.868 24.868 0 0 0 179.495 94.189 Q 180.126 93.364 179.768 92.659 A 1.336 1.336 0 0 0 179.764 92.651 A 1.361 1.361 0 0 0 179.054 92.015 Q 178.821 91.917 178.526 91.871 A 3.171 3.171 0 0 0 178.323 91.846 A 17.999 17.999 0 0 0 176.479 91.75 A 16.915 16.915 0 0 0 171.878 92.383 L 171.78 92.383 Q 169.534 93.018 167.142 93.555 A 2.436 2.436 0 0 1 166.767 93.589 Q 166.004 93.597 165.376 93.088 A 2.972 2.972 0 0 1 165.091 92.822 A 1.131 1.131 0 0 1 164.961 92.443 Q 164.925 92.193 165.008 91.929 A 1.6 1.6 0 0 1 165.115 91.675 Q 165.433 91.064 166.409 90.674 A 28.464 28.464 0 0 1 177.527 88.42 A 30.356 30.356 0 0 1 181.009 88.623 A 12.305 12.305 0 0 1 184.427 89.697 A 5.612 5.612 0 0 1 185.365 90.295 Q 187.141 91.717 186.11 93.95 A 5.977 5.977 0 0 1 185.94 94.287 A 16.685 16.685 0 0 1 181.503 99.366 A 19.43 19.43 0 0 1 180.911 99.805 Q 176.712 102.881 172.317 105.908 A 47.07 47.07 0 0 0 170.908 106.86 A 42.253 42.253 0 0 0 170.462 107.178 Z M 200.442 120.41 A 0.714 0.714 0 0 0 200.296 120.85 A 70.864 70.864 0 0 0 199.768 122.263 A 80.964 80.964 0 0 0 198.294 126.758 A 145.01 145.01 0 0 1 193.24 140.063 A 44.416 44.416 0 0 1 191.89 142.889 A 37.695 37.695 0 0 1 185.77 151.514 Q 181.204 156.299 173.88 157.031 A 40.11 40.11 0 0 1 170.608 157.166 A 35.986 35.986 0 0 1 153.812 153.076 A 17.23 17.23 0 0 1 152.968 152.647 Q 149.694 150.861 149.564 148.706 Q 149.417 146.289 153.03 143.066 A 59.651 59.651 0 0 1 162.503 136.328 A 286.551 286.551 0 0 1 179.349 127.393 Q 187.942 123.193 196.536 119.238 A 31.332 31.332 0 0 1 198.685 118.262 A 7.964 7.964 0 0 1 199.258 118.079 A 10.778 10.778 0 0 1 199.905 117.92 L 200.442 117.92 Q 200.833 118.604 200.784 119.238 A 2.879 2.879 0 0 1 200.442 120.41 Z M 145.315 115.137 L 145.022 115.137 L 144.876 115.137 A 25.784 25.784 0 0 1 141.73 114.916 Q 137.252 114.3 135.55 111.987 A 5.554 5.554 0 0 1 134.474 108.658 Q 134.46 107.024 135.224 105.055 A 16.75 16.75 0 0 1 135.745 103.857 A 25.129 25.129 0 0 1 140.921 97.119 Q 141.995 96.143 143.118 95.557 A 5.185 5.185 0 0 1 145.01 95.003 A 6.385 6.385 0 0 1 145.657 94.971 A 2.472 2.472 0 0 1 146.088 94.934 Q 146.756 94.934 147.562 95.264 Q 147.903 95.361 148.245 95.508 A 5.869 5.869 0 0 0 149.856 94.971 A 1.168 1.168 0 0 1 150.031 94.864 Q 150.123 94.818 150.233 94.778 A 2.533 2.533 0 0 1 150.394 94.727 A 7.948 7.948 0 0 1 153.333 94.176 A 8.86 8.86 0 0 1 153.812 94.189 L 155.325 94.189 Q 158.206 94.629 159.671 96.606 A 5.745 5.745 0 0 1 160.793 99.903 Q 160.814 100.477 160.741 101.092 A 9.07 9.07 0 0 1 160.696 101.416 A 9.419 9.419 0 0 1 159.622 104.639 Q 154.007 114.697 145.315 115.137 Z M 152.737 97.656 A 11.766 11.766 0 0 0 152.291 97.648 A 10.083 10.083 0 0 0 145.877 99.878 A 16.677 16.677 0 0 0 142.985 102.766 A 14.055 14.055 0 0 0 141.409 105.322 A 13.251 13.251 0 0 0 140.855 106.658 Q 140.179 108.599 140.505 110.022 A 3.781 3.781 0 0 0 140.604 110.376 Q 141.207 112.186 144.122 111.603 A 10.588 10.588 0 0 0 144.681 111.475 A 14.841 14.841 0 0 0 150.74 107.854 A 17.947 17.947 0 0 0 151.492 107.08 A 21.023 21.023 0 0 0 153.218 104.951 Q 154.668 102.881 155.106 100.952 A 5.088 5.088 0 0 0 155.19 100.483 Q 155.511 98.014 152.737 97.656 Z" vector-effect="non-scaling-stroke"/></g></svg>